<?xml version="1.0" encoding="utf-8"?>
<!-- Generator: Adobe Illustrator 21.0.0, SVG Export Plug-In . SVG Version: 6.00 Build 0)  -->
<svg version="1.1" id="Layer_2" xmlns="http://www.w3.org/2000/svg" xmlns:xlink="http://www.w3.org/1999/xlink" x="0px" y="0px"
	 viewBox="0 0 545.2 169.7" style="enable-background:new 0 0 545.2 169.7;" xml:space="preserve">
<style type="text/css">
	.st0{fill:#1DBF73;}
	.st1{fill:#FFFFFE;}
	.st2{opacity:0.5;fill:url(#SVGID_1_);}
</style>
<g>
	<g>
		<path class="st0" d="M149.1,68.5V113h36v-9.2h-26V90.9h14.1c3.6,0,5.3-1.7,5.3-5.1v-3.3h-19.4V71.8h26v-8.7h-30.9
			C150.8,63.2,149.1,65.1,149.1,68.5z"/>
		<g>
			<path class="st0" d="M207.1,73.6c-8.9,0-14,3.5-15.2,10.7h9.7c0.5-1.8,2.4-2.7,5.9-2.7c4,0,6.1,1.1,6.3,3.3
				c0,2.1-2.1,3.4-6.3,3.9c-9.8,1-16.6,3.4-16.8,12.8c0,8.6,6.5,12.9,15.8,12.2c10.5-0.7,16.9-5.5,16.9-16.2V84.3
				C223.2,77.2,217.8,73.6,207.1,73.6z M213.9,97.1c0,5.5-3.3,8.7-8.7,8.7c-3.1,0-4.7-1.5-4.9-4.5c0-2.9,2-4.7,5.9-5.4
				c2.9-0.6,5.5-1.4,7.8-2.3V97.1z"/>
		</g>
		<path class="st0" d="M229.6,93v20h9.9V92.8c0-5.6,2.7-8.5,8.1-8.5h3.3V74.2h-1.4C236.5,74.2,229.9,80.5,229.6,93z"/>
		<path class="st0" d="M273.5,73.6c-11.1,0-16.6,5.5-16.6,16.6V113h9.9V88.2c0.1-4,2.3-6,6.6-6c4.3,0,6.5,2,6.7,6v19.9
			c0,3.1,1.6,4.6,4.8,4.8h5V90.2C290,79.1,284.6,73.6,273.5,73.6z"/>
		<path class="st0" d="M300.9,59.8h-5.1v7.6h9.7v-2.9C305.6,61.4,304.1,59.8,300.9,59.8z"/>
		<path class="st0" d="M300.9,74.2h-5.1V113h9.7V78.9C305.6,75.8,304,74.2,300.9,74.2z"/>
		<path class="st0" d="M329.1,73.6c-11.1,0-16.6,5.5-16.6,16.6V113h9.9V88.2c0.1-4,2.3-6,6.6-6c4.3,0,6.5,2,6.7,6v19.9
			c0,3.1,1.6,4.6,4.8,4.8h5V90.2C345.6,79.1,340.2,73.6,329.1,73.6z"/>
		<g>
			<path class="st0" d="M368.9,74.1c-12,0.2-18,6.7-18,19.6c0,13.3,5.1,20.1,15.5,20.1c4.8,0,8.6-1.9,11.1-5.7v4c0,6-2.6,9-7.8,9
				c-4,0-6.3-1.3-7-4.1h-10.8c2.3,8.2,7.8,12.3,16.6,12.3c12.4-0.2,18.5-5.1,18.5-14.9V91.4C387,79.7,381,74,368.9,74.1z M369,105.2
				c-5.3,0-7.9-3.7-8.1-11.2c0-7.8,2.7-11.7,8.3-11.7c5.6,0,8.3,3.9,8.2,11.7C377.1,101.4,374.3,105.2,369,105.2z"/>
		</g>
		<path class="st0" d="M410.5,88.8c-5.1-1-7.5-2.5-7.5-4.5c0-2,1.9-3,5.7-3c3.2,0,5.2,1,5.9,2.6c0.6,1.5,2.1,2.3,4.3,2.4h6.2
			c-0.2-4-1.8-7.2-4.6-9.5c-2.9-2.2-6.9-3.3-11.9-3.3c-8.9,0.1-15.5,4.1-15.5,12.5c0.1,6.1,4.5,9.9,13,11.4c6.7,1.2,10,2.8,10,4.8
			c0,2.5-2,3.7-6.2,3.7c-4.8,0-7.8-1.5-8.1-5.7h-10c0,4.5,1.5,7.8,4.4,10c2.6,2.3,6.8,3.4,12.2,3.4c10.3,0,17.7-3.5,17.7-13
			c0-2.6-0.9-5-2.7-6.9C421.4,91.8,417.1,90.1,410.5,88.8z"/>
		<path class="st0" d="M454.7,71.4c4.8,0,8.1,1.8,9.8,5.4c1,2,2.6,3,4.8,3h6.2c-0.5-5.4-2.5-9.8-6-12.9c-3.7-3.1-8.6-4.5-14.7-4.5
			c-15.8,0-23.8,9.7-23.8,25.7c0,15.5,7.6,25.7,22.9,25.7c12.6,0,20.7-6.5,21.6-18h-9.9c-1.1,5.5-4.8,9-11.1,9
			c-9.3,0-13.3-6.9-13.3-16.6C441.1,78,445.2,71.4,454.7,71.4z"/>
		<g>
			<path class="st0" d="M497.3,73.6c-8.9,0-14,3.5-15.2,10.7h9.7c0.5-1.8,2.4-2.7,5.9-2.7c4,0,6.1,1.1,6.3,3.3
				c0,2.1-2.1,3.4-6.3,3.9c-9.8,1-16.6,3.4-16.8,12.8c0,8.6,6.5,12.9,15.8,12.2c10.5-0.7,16.9-5.5,16.9-16.2V84.3
				C513.4,77.2,508,73.6,497.3,73.6z M504.2,97.1c0,5.5-3.3,8.7-8.7,8.7c-3.1,0-4.7-1.5-4.9-4.5c0-2.9,2-4.7,5.9-5.4
				c2.8-0.6,5.5-1.4,7.8-2.3V97.1z"/>
		</g>
		<path class="st0" d="M524.3,63.2h-5.1V113h9.8V67.9C529,65.4,526.9,63.2,524.3,63.2z"/>
		<path class="st0" d="M540.5,63.2h-5.1V113h9.8V67.9C545.2,65.4,543,63.2,540.5,63.2z"/>
	</g>
	<g>
		<path class="st0" d="M118.9,0H96.5l0,117.8c0.1,0,0.2,0,0.3,0.1c2.4,0.6,4.8,1.4,7.3,2.4c4.6,1.9,9.3,4.4,13.6,7.4
			c0.1,0.1,0.1,0.1,0.2,0.1l0.1,0.1c0.2,0.1,0.4,0.3,0.6,0.4c0.1,0.1,0.2,0.1,0.3,0.2l0,0L118.9,0z"/>
		<g>
			<path class="st0" d="M41.1,112.6c-0.2,0.2-0.5,0.4-0.6,0.6c0.1,0.1,0.2,0.3,0.4,0.5c0.1,0.1,0.1,0.1,0.2,0.2
				c0.2,0.2,0.3,0.4,0.5,0.6c0.1,0.1,0.1,0.2,0.2,0.2c0.3,0.3,0.6,0.6,1,1c0.8,0.8,1.8,1.7,3.1,2.6v-10.8
				C44.5,109.1,42.9,110.8,41.1,112.6z"/>
			<path class="st0" d="M23.4,40.3v27.5c2.4,1,4.7,2.3,6.9,3.6c4.2,2.6,8.1,5.8,11.4,9c0.3,0.3,0.7,0.7,1,1l3.2,3.9v-45H23.4z"/>
		</g>
		<path class="st0" d="M59.2,20.9v106.6c3.2,2.3,12.4,6.7,14.3,7.1c0.6-1.8,1.3-3.5,2-5.2c0.6-1.4,3.4-7.1,6.1-9.9V20.9H59.2z"/>
	</g>
	<g>
		<path class="st0" d="M120.7,140.5c-8.3-11.1-31.9-19.8-34.8-14.7c0,0-3.1,4.5-5,10.2c-1.6,4.9-3.2,11.1-23.3-0.6h0
			c-32.1-19.3-26-24.3-21.6-28.4c4.4-4.1,7.2-8.8,7.2-8.8c3.3-4.8-14.5-22.5-28-25.4C1.6,70,0,101.9,0,101.9
			c0.4,22.9,23,40.3,35.8,48.4c8.6,6.3,39.9,27.2,64.9,16.2C100.7,166.5,129,151.6,120.7,140.5"/>
		<g>
			<path class="st1" d="M3.9,99.3c0,0,1.7-15.2,4-15.2C10.2,84.1,7.9,89.6,3.9,99.3"/>
			<path class="st1" d="M11.9,78.9c0,0.8-0.7,1.5-1.5,1.5c-0.8,0-1.5-0.7-1.5-1.5c0-0.8,0.7-1.5,1.5-1.5
				C11.2,77.4,11.9,78,11.9,78.9"/>
		</g>
		
			<linearGradient id="SVGID_1_" gradientUnits="userSpaceOnUse" x1="-266.863" y1="455.192" x2="-265.863" y2="455.192" gradientTransform="matrix(-499.0729 133.4315 133.4315 499.0729 -193823.25 -191442.0156)">
			<stop  offset="0" style="stop-color:#FFFFFF"/>
			<stop  offset="1" style="stop-color:#000000"/>
		</linearGradient>
		<path class="st2" d="M34.7,138.9c20.3,13.6,57.9,39.4,78.8-5.1c-10.4-7.5-25.3-11.9-27.7-8c0,0-3.1,4.5-5,10.2
			c-1.6,4.9-3.2,11.1-23.3-0.6c-25.5-15.3-26.9-21.7-24.2-25.6C29.6,113.2,16.4,126.6,34.7,138.9z"/>
	</g>
</g>
</svg>
